<?xml version="1.0" encoding="UTF-8"?>
<svg id="Layer_1" data-name="Layer 1" xmlns="http://www.w3.org/2000/svg" viewBox="0 0 23.31 31.44">
  <path d="M23.04,26.14h-.55c-3.02,0-3.05-2.16-3.05-2.18,0-.66.2-1.19.6-1.59.48-.47,1.23-.73,2.14-.73h.43l.12-.39c.39-1.28.58-2.44.58-3.56,0-5.06-3-10.19-7.26-12.45-.23-.18-2.52-3.2-3.89-5.02-.33-.44-1.03-.21-1.03.35v4.72c-.47,0-1.35-.01-2.15-.01-1.17,0-1.51.57-2.48,2.11-1.3,2.08-4.69,5.53-6.23,6.58,0,0-.21.12-.25.29s.07.39.07.39c.44.94,1.49,3.42,1.79,4.11.05.11.16.19.29.19h2.37c.11,0,.21-.05.27-.14,0,0,2.72-3.28,6.3-3.28v3.39c-3.28.78-5.05,3.45-4.98,7.21h-3.23v5.3h20.17v-.54h.02v-4.2h-.02v-.55ZM22.22,17.69c0,.9-.14,1.84-.42,2.87-1.03.07-1.92.43-2.53,1.04-.6.6-.92,1.41-.92,2.36,0,.5.23,1.44,1,2.18h-7.6c2.85-.96,5.46-3.97,5.79-7.21.44-4.29-2.09-8.56-6.45-9.25v-3.47s4.49.03,4.49.03c3.91,2.13,6.63,6.82,6.63,11.46ZM5.56,10.74h5.54v3.67s-9.71,0-9.71,0c1.07-.84,2.55-2.12,3.71-3.46.12-.13.28-.21.46-.21ZM3.96,27.23h7.48v3.11H3.96v-3.11Z"/>
</svg>