<?xml version="1.0" encoding="UTF-8"?>
<svg id="Layer_1" data-name="Layer 1" xmlns="http://www.w3.org/2000/svg" viewBox="0 0 130.72 31.44">
  <defs>
    <style>
      .cls-1 {
        fill: #231f20;
      }
    </style>
  </defs>
  <path class="cls-1" d="M23.04,26.14h-.55c-3.02,0-3.05-2.16-3.05-2.18,0-.66.2-1.19.6-1.59.48-.47,1.23-.73,2.14-.73h.43l.12-.39c.39-1.28.58-2.44.58-3.56,0-5.06-3-10.19-7.26-12.45-.23-.18-2.52-3.2-3.89-5.02-.33-.44-1.03-.21-1.03.35v4.72c-.47,0-1.35-.01-2.15-.01-1.17,0-1.51.57-2.48,2.11-1.3,2.08-4.69,5.53-6.23,6.58,0,0-.21.12-.25.29s.07.39.07.39c.44.94,1.49,3.42,1.79,4.11.05.11.16.19.29.19h2.37c.11,0,.21-.05.27-.14,0,0,2.72-3.28,6.3-3.28v3.39c-3.28.78-5.05,3.45-4.98,7.21h-3.23v5.3h20.17v-.54h.02v-4.2h-.02v-.55ZM22.22,17.69c0,.9-.14,1.84-.42,2.87-1.03.07-1.92.43-2.53,1.04-.6.6-.92,1.41-.92,2.36,0,.5.23,1.44,1,2.18h-7.6c2.85-.96,5.46-3.97,5.79-7.21.44-4.29-2.09-8.56-6.45-9.25v-3.47s4.49.03,4.49.03c3.91,2.13,6.63,6.82,6.63,11.46ZM5.56,10.74h5.54v3.67s-9.71,0-9.71,0c1.07-.84,2.55-2.12,3.71-3.46.12-.13.28-.21.46-.21ZM3.96,27.23h7.48v3.11H3.96v-3.11Z"/>
  <g>
    <path class="cls-1" d="M39.83,17.84c0,.35-.03.69-.09,1.01-.06.33-.18.62-.36.88-.18.26-.45.47-.79.62-.35.16-.8.23-1.38.23-.42,0-.78-.07-1.08-.2-.3-.13-.54-.31-.73-.53-.19-.23-.33-.5-.42-.81-.09-.31-.13-.65-.13-1.01v-.42h1.39v.41c0,.45.08.8.23,1.05.15.25.44.37.86.37.22,0,.41-.03.55-.1.15-.07.26-.17.35-.29s.14-.29.17-.48c.03-.19.04-.41.04-.66v-5.47h1.39v5.39Z"/>
    <path class="cls-1" d="M45.42,12.45h5.72v1.2h-4.33v2.08h4.01v1.14h-4.01v2.33h4.41v1.2h-5.8v-7.95Z"/>
    <path class="cls-1" d="M56.33,12.45h3.8c.88,0,1.53.19,1.97.57s.66.91.66,1.58c0,.38-.06.69-.17.94s-.24.45-.39.6-.29.26-.44.33c-.14.07-.25.11-.32.13v.02c.12.01.25.05.38.11s.27.15.38.28.22.3.3.51c.08.21.12.47.12.78,0,.47.04.89.11,1.28.07.38.18.66.33.82h-1.49c-.1-.17-.17-.36-.18-.57-.02-.21-.03-.41-.03-.6,0-.36-.02-.68-.07-.94s-.13-.48-.25-.66-.28-.3-.48-.38c-.2-.08-.47-.12-.79-.12h-2.05v3.27h-1.39v-7.95ZM57.73,16.06h2.28c.45,0,.78-.11,1.01-.32.23-.21.35-.53.35-.95,0-.25-.04-.46-.11-.62-.07-.16-.18-.28-.31-.37-.13-.09-.28-.15-.45-.18s-.34-.04-.52-.04h-2.26v2.48Z"/>
    <path class="cls-1" d="M68.07,12.45h5.72v1.2h-4.33v2.08h4.01v1.14h-4.01v2.33h4.41v1.2h-5.8v-7.95Z"/>
    <path class="cls-1" d="M78.99,12.45h3.86c.71,0,1.29.16,1.72.49.43.33.65.82.65,1.48,0,.4-.1.74-.29,1.03-.2.29-.48.51-.84.66v.02c.49.1.86.34,1.11.7.25.36.38.81.38,1.35,0,.31-.06.6-.17.88-.11.27-.29.5-.52.7-.24.2-.54.35-.91.47s-.81.17-1.33.17h-3.65v-7.95ZM80.38,15.78h2.27c.33,0,.61-.09.83-.28s.33-.46.33-.82c0-.4-.1-.68-.3-.85-.2-.16-.49-.25-.87-.25h-2.27v2.19ZM80.38,19.26h2.46c.42,0,.75-.11.99-.33.23-.22.35-.53.35-.93s-.12-.7-.35-.91c-.23-.21-.56-.32-.99-.32h-2.46v2.48Z"/>
    <path class="cls-1" d="M89.97,12.45h6.44v1.2h-2.53v6.75h-1.39v-6.75h-2.52v-1.2Z"/>
    <path class="cls-1" d="M102.14,17.75c0,.3.05.56.16.78.1.22.25.39.43.53.19.14.4.24.64.3.24.06.5.09.79.09.3,0,.56-.04.78-.11.21-.07.39-.16.52-.27s.23-.24.29-.38c.06-.14.09-.29.09-.44,0-.3-.07-.53-.21-.67-.14-.14-.29-.25-.45-.31-.28-.1-.61-.2-.99-.29s-.84-.21-1.39-.36c-.34-.09-.62-.21-.85-.35s-.41-.31-.54-.48c-.13-.18-.23-.37-.28-.57-.06-.2-.08-.4-.08-.61,0-.4.08-.75.25-1.04.17-.29.39-.54.66-.73.27-.19.59-.34.94-.43.35-.09.7-.14,1.06-.14.42,0,.81.05,1.17.16.37.11.69.27.97.48.28.22.5.48.66.8s.25.68.25,1.1h-1.39c-.04-.51-.21-.87-.52-1.09-.31-.21-.71-.32-1.19-.32-.16,0-.33.02-.5.05-.17.03-.33.09-.47.17-.14.08-.26.18-.35.32-.09.13-.14.3-.14.5,0,.28.09.5.26.66.17.16.4.28.68.36.03,0,.15.04.35.09.2.06.43.12.68.18.25.07.5.13.74.2s.41.11.52.14c.26.08.49.19.68.33.19.14.35.3.49.48.13.18.23.38.29.58.06.21.09.42.09.62,0,.45-.09.83-.27,1.14-.18.32-.42.57-.72.77s-.63.35-1.01.44-.76.14-1.16.14c-.45,0-.88-.06-1.28-.17-.4-.11-.75-.28-1.05-.51-.3-.23-.53-.53-.71-.89-.18-.36-.27-.79-.28-1.27h1.39Z"/>
    <path class="cls-1" d="M115.73,12.26c.59,0,1.13.11,1.6.33.47.22.87.52,1.2.9.33.38.58.82.75,1.33.17.5.26,1.04.26,1.6s-.09,1.11-.26,1.62c-.17.5-.42.95-.75,1.33-.33.38-.73.68-1.2.9-.47.22-1,.33-1.6.33s-1.13-.11-1.6-.33c-.47-.22-.87-.52-1.2-.9-.33-.38-.58-.82-.75-1.33-.17-.5-.26-1.04-.26-1.62s.09-1.1.26-1.6c.17-.5.43-.95.75-1.33.33-.38.73-.68,1.2-.9s1-.33,1.6-.33ZM115.73,13.39c-.42,0-.79.09-1.1.26-.31.17-.56.4-.75.69-.19.29-.34.61-.43.97-.09.36-.14.74-.14,1.11s.05.75.14,1.11c.09.36.24.69.43.97.19.29.44.51.75.68.31.17.67.26,1.1.26s.79-.09,1.1-.26c.31-.17.56-.4.75-.68s.34-.61.43-.97.14-.74.14-1.11-.05-.75-.14-1.11-.24-.69-.43-.97c-.19-.29-.44-.51-.75-.69-.31-.17-.67-.26-1.1-.26Z"/>
    <path class="cls-1" d="M123.81,12.45h1.45l1.99,6.29h.02l2.04-6.29h1.41l-2.72,7.95h-1.55l-2.65-7.95Z"/>
  </g>
</svg>